<?xml version="1.0" encoding="UTF-8" standalone="no"?>
<!DOCTYPE svg PUBLIC "-//W3C//DTD SVG 1.0//EN" "http://www.w3.org/TR/2001/PR-SVG-20010719/DTD/svg10.dtd">
<svg width="49cm" height="23cm" viewBox="239 58 965 441" xmlns="http://www.w3.org/2000/svg" xmlns:xlink="http://www.w3.org/1999/xlink">
  <g>
    <g>
      <rect style="fill: #ffffff" x="580" y="60" width="80" height="38"/>
      <rect style="fill: none; fill-opacity:0; stroke-width: 2; stroke: #000000" x="580" y="60" width="80" height="38"/>
      <text font-size="12.8" style="fill: #000000;text-anchor:middle;font-family:sans-serif;font-style:normal;font-weight:normal" x="620" y="83.8">
        <tspan x="620" y="83.8">input</tspan>
      </text>
    </g>
    <g>
      <rect style="fill: #ffffff" x="580" y="120" width="81.85" height="38"/>
      <rect style="fill: none; fill-opacity:0; stroke-width: 2; stroke: #000000" x="580" y="120" width="81.85" height="38"/>
      <text font-size="12.8" style="fill: #000000;text-anchor:middle;font-family:sans-serif;font-style:normal;font-weight:normal" x="620.925" y="143.8">
        <tspan x="620.925" y="143.8">interpreter</tspan>
      </text>
    </g>
    <g>
      <rect style="fill: #ffffff" x="460" y="220" width="280" height="38"/>
      <rect style="fill: none; fill-opacity:0; stroke-width: 2; stroke: #000000" x="460" y="220" width="280" height="38"/>
      <text font-size="12.8" style="fill: #000000;text-anchor:middle;font-family:sans-serif;font-style:normal;font-weight:normal" x="600" y="243.8">
        <tspan x="600" y="243.8">API</tspan>
      </text>
    </g>
    <g>
      <rect style="fill: #ffffff" x="400" y="300" width="106.05" height="38"/>
      <rect style="fill: none; fill-opacity:0; stroke-width: 2; stroke: #000000" x="400" y="300" width="106.05" height="38"/>
      <text font-size="12.8" style="fill: #000000;text-anchor:middle;font-family:sans-serif;font-style:normal;font-weight:normal" x="453.025" y="323.8">
        <tspan x="453.025" y="323.8">index manager</tspan>
      </text>
    </g>
    <g>
      <rect style="fill: #ffffff" x="520" y="300" width="160" height="38"/>
      <rect style="fill: none; fill-opacity:0; stroke-width: 2; stroke: #000000" x="520" y="300" width="160" height="38"/>
      <text font-size="12.8" style="fill: #000000;text-anchor:middle;font-family:sans-serif;font-style:normal;font-weight:normal" x="600" y="323.8">
        <tspan x="600" y="323.8">record manager</tspan>
      </text>
    </g>
    <g>
      <rect style="fill: #ffffff" x="700" y="300" width="120" height="38"/>
      <rect style="fill: none; fill-opacity:0; stroke-width: 2; stroke: #000000" x="700" y="300" width="120" height="38"/>
      <text font-size="12.8" style="fill: #000000;text-anchor:middle;font-family:sans-serif;font-style:normal;font-weight:normal" x="760" y="323.8">
        <tspan x="760" y="323.8">catalog manager</tspan>
      </text>
    </g>
    <g>
      <rect style="fill: #ffffff" x="400" y="380" width="400" height="38"/>
      <rect style="fill: none; fill-opacity:0; stroke-width: 2; stroke: #000000" x="400" y="380" width="400" height="38"/>
      <text font-size="12.8" style="fill: #000000;text-anchor:middle;font-family:sans-serif;font-style:normal;font-weight:normal" x="600" y="403.8">
        <tspan x="600" y="403.8">buffer manager</tspan>
      </text>
    </g>
    <g>
      <rect style="fill: #ffffff" x="560" y="460" width="80" height="38"/>
      <rect style="fill: none; fill-opacity:0; stroke-width: 2; stroke: #000000" x="560" y="460" width="80" height="38"/>
      <text font-size="12.8" style="fill: #000000;text-anchor:middle;font-family:sans-serif;font-style:normal;font-weight:normal" x="600" y="483.8">
        <tspan x="600" y="483.8">disk file</tspan>
      </text>
    </g>
    <g>
      <line style="fill: none; fill-opacity:0; stroke-width: 2; stroke: #000000" x1="620" y1="98" x2="620.256" y2="109.327"/>
      <polygon style="fill: #000000" points="620.425,116.825 615.2,106.94 620.256,109.327 625.198,106.715 "/>
      <polygon style="fill: none; fill-opacity:0; stroke-width: 2; stroke: #000000" points="620.425,116.825 615.2,106.94 620.256,109.327 625.198,106.715 "/>
    </g>
    <g>
      <polyline style="fill: none; fill-opacity:0; stroke-width: 2; stroke: #000000" points="620.926,158 620.926,186.538 474.142,186.538 474.142,79 569.268,79 "/>
      <polygon style="fill: #000000" points="576.768,79 566.768,84 569.268,79 566.768,74 "/>
      <polygon style="fill: none; fill-opacity:0; stroke-width: 2; stroke: #000000" points="576.768,79 566.768,84 569.268,79 566.768,74 "/>
    </g>
    <g>
      <polyline style="fill: none; fill-opacity:0; stroke-width: 2; stroke: #000000" points="600,218.99 600,189 620.925,189 620.925,168.746 "/>
      <polygon style="fill: #000000" points="620.925,161.246 625.925,171.246 620.925,168.746 615.925,171.246 "/>
      <polygon style="fill: none; fill-opacity:0; stroke-width: 2; stroke: #000000" points="620.925,161.246 625.925,171.246 620.925,168.746 615.925,171.246 "/>
    </g>
    <g>
      <polyline style="fill: none; fill-opacity:0; stroke-width: 2; stroke: #000000" points="760,299.029 760,140 672.578,139.371 "/>
      <polygon style="fill: #000000" points="665.078,139.317 675.113,134.39 672.578,139.371 675.042,144.389 "/>
      <polygon style="fill: none; fill-opacity:0; stroke-width: 2; stroke: #000000" points="665.078,139.317 675.113,134.39 672.578,139.371 675.042,144.389 "/>
    </g>
    <g>
      <polyline style="fill: none; fill-opacity:0; stroke-width: 2; stroke: #000000" points="453.026,300 543.93,262.271 "/>
      <polygon style="fill: #000000" points="550.857,259.396 543.538,267.848 543.93,262.271 539.704,258.612 "/>
      <polygon style="fill: none; fill-opacity:0; stroke-width: 2; stroke: #000000" points="550.857,259.396 543.538,267.848 543.93,262.271 539.704,258.612 "/>
    </g>
    <g>
      <polyline style="fill: none; fill-opacity:0; stroke-width: 2; stroke: #000000" points="600,298.99 600,268.746 "/>
      <polygon style="fill: #000000" points="600,261.246 605,271.246 600,268.746 595,271.246 "/>
      <polygon style="fill: none; fill-opacity:0; stroke-width: 2; stroke: #000000" points="600,261.246 605,271.246 600,268.746 595,271.246 "/>
    </g>
    <g>
      <polyline style="fill: none; fill-opacity:0; stroke-width: 2; stroke: #000000" points="719.98,298.99 648.728,263.364 "/>
      <polygon style="fill: #000000" points="642.02,260.01 653.2,260.01 648.728,263.364 648.728,268.954 "/>
      <polygon style="fill: none; fill-opacity:0; stroke-width: 2; stroke: #000000" points="642.02,260.01 653.2,260.01 648.728,263.364 648.728,268.954 "/>
    </g>
    <g>
      <line style="fill: none; fill-opacity:0; stroke-width: 2; stroke: #000000" x1="563.238" y1="378.99" x2="498.338" y2="343.664"/>
      <polygon style="fill: #000000" points="491.751,340.079 502.924,340.468 498.338,343.664 498.143,349.251 "/>
      <polygon style="fill: none; fill-opacity:0; stroke-width: 2; stroke: #000000" points="491.751,340.079 502.924,340.468 498.338,343.664 498.143,349.251 "/>
    </g>
    <g>
      <line style="fill: none; fill-opacity:0; stroke-width: 2; stroke: #000000" x1="600" y1="378.99" x2="600" y2="348.746"/>
      <polygon style="fill: #000000" points="600,341.246 605,351.246 600,348.746 595,351.246 "/>
      <polygon style="fill: none; fill-opacity:0; stroke-width: 2; stroke: #000000" points="600,341.246 605,351.246 600,348.746 595,351.246 "/>
    </g>
    <g>
      <line style="fill: none; fill-opacity:0; stroke-width: 2; stroke: #000000" x1="640.02" y1="378.99" x2="711.272" y2="343.364"/>
      <polygon style="fill: #000000" points="717.98,340.01 711.272,348.954 711.272,343.364 706.8,340.01 "/>
      <polygon style="fill: none; fill-opacity:0; stroke-width: 2; stroke: #000000" points="717.98,340.01 711.272,348.954 711.272,343.364 706.8,340.01 "/>
    </g>
    <g>
      <line style="fill: none; fill-opacity:0; stroke-width: 2; stroke: #000000" x1="600" y1="458.99" x2="600" y2="428.746"/>
      <polygon style="fill: #000000" points="600,421.246 605,431.246 600,428.746 595,431.246 "/>
      <polygon style="fill: none; fill-opacity:0; stroke-width: 2; stroke: #000000" points="600,421.246 605,431.246 600,428.746 595,431.246 "/>
    </g>
    <g>
      <rect style="fill: #ffffff" x="780" y="60" width="270.6" height="36.1111"/>
      <rect style="fill: none; fill-opacity:0; stroke-width: 2; stroke: #000000" x="780" y="60" width="270.6" height="36.1111"/>
      <text font-size="11.2889" style="fill: #000000;text-anchor:middle;font-family:sans-serif;font-style:normal;font-weight:normal" x="915.3" y="83.1">
        <tspan x="915.3" y="83.1">判断并接受用户字符输入，使做为解释器的输入。</tspan>
      </text>
    </g>
    <g>
      <rect style="fill: #ffffff" x="780" y="220" width="422.6" height="36.1111"/>
      <rect style="fill: none; fill-opacity:0; stroke-width: 2; stroke: #000000" x="780" y="220" width="422.6" height="36.1111"/>
      <text font-size="11.2889" style="fill: #000000;text-anchor:middle;font-family:sans-serif;font-style:normal;font-weight:normal" x="991.3" y="243.1">
        <tspan x="991.3" y="243.1">解释生成的命令内部表示为输入，根据Catalog Manager提供的信息确定执行规则</tspan>
      </text>
    </g>
    <g>
      <rect style="fill: #ffffff" x="780" y="120" width="252.4" height="38"/>
      <rect style="fill: none; fill-opacity:0; stroke-width: 2; stroke: #000000" x="780" y="120" width="252.4" height="38"/>
      <text font-size="12.8" style="fill: #000000;text-anchor:middle;font-family:sans-serif;font-style:normal;font-weight:normal" x="906.2" y="144.7">
        <tspan x="906.2" y="144.7">生成命令的内部数据结构表示，检查语法</tspan>
      </text>
    </g>
    <g>
      <rect style="fill: #ffffff" x="840" y="300" width="201.2" height="38"/>
      <rect style="fill: none; fill-opacity:0; stroke-width: 2; stroke: #000000" x="840" y="300" width="201.2" height="38"/>
      <text font-size="12.8" style="fill: #000000;text-anchor:middle;font-family:sans-serif;font-style:normal;font-weight:normal" x="940.6" y="324.7">
        <tspan x="940.6" y="324.7">负责管理数据库的所有模式信息</tspan>
      </text>
    </g>
    <g>
      <rect style="fill: #ffffff" x="280" y="460" width="214" height="38"/>
      <rect style="fill: none; fill-opacity:0; stroke-width: 2; stroke: #000000" x="280" y="460" width="214" height="38"/>
      <text font-size="12.8" style="fill: #000000;text-anchor:middle;font-family:sans-serif;font-style:normal;font-weight:normal" x="387" y="484.7">
        <tspan x="387" y="484.7">负责管理记录表中数据的数据文件</tspan>
      </text>
    </g>
    <g>
      <rect style="fill: #ffffff" x="240" y="300" width="141.25" height="38"/>
      <rect style="fill: none; fill-opacity:0; stroke-width: 2; stroke: #000000" x="240" y="300" width="141.25" height="38"/>
      <text font-size="12.8" style="fill: #000000;text-anchor:middle;font-family:sans-serif;font-style:normal;font-weight:normal" x="310.625" y="324.7">
        <tspan x="310.625" y="324.7">负责B+树索引的实现</tspan>
      </text>
    </g>
    <g>
      <line style="fill: none; fill-opacity:0; stroke-width: 2; stroke: #000000" x1="413.638" y1="458.99" x2="565.578" y2="344.857"/>
      <polygon style="fill: #000000" points="571.574,340.353 566.582,350.356 565.578,344.857 560.576,342.361 "/>
      <polygon style="fill: none; fill-opacity:0; stroke-width: 2; stroke: #000000" points="571.574,340.353 566.582,350.356 565.578,344.857 560.576,342.361 "/>
    </g>
    <g>
      <rect style="fill: #ffffff" x="840" y="380" width="73.2" height="38"/>
      <rect style="fill: none; fill-opacity:0; stroke-width: 2; stroke: #000000" x="840" y="380" width="73.2" height="38"/>
      <text font-size="12.8" style="fill: #000000;text-anchor:middle;font-family:sans-serif;font-style:normal;font-weight:normal" x="876.6" y="404.7">
        <tspan x="876.6" y="404.7">缓存管理</tspan>
      </text>
    </g>
    <g>
      <rect style="fill: #ffffff" x="680" y="460" width="98.8" height="38"/>
      <rect style="fill: none; fill-opacity:0; stroke-width: 2; stroke: #000000" x="680" y="460" width="98.8" height="38"/>
      <text font-size="12.8" style="fill: #000000;text-anchor:middle;font-family:sans-serif;font-style:normal;font-weight:normal" x="729.4" y="484.7">
        <tspan x="729.4" y="484.7">物理硬盘存储</tspan>
      </text>
    </g>
  </g>
</svg>
